<?xml version="1.0" encoding="UTF-8" standalone="no"?>
<!-- Created with Inkscape (http://www.inkscape.org/) -->

<svg
   width="4.8409204mm"
   height="4.8409204mm"
   viewBox="0 0 4.8409204 4.8409204"
   version="1.1"
   id="svg1"
   xml:space="preserve"
   inkscape:version="1.3 (0e150ed6c4, 2023-07-21)"
   sodipodi:docname="logo.svg"
   xmlns:inkscape="http://www.inkscape.org/namespaces/inkscape"
   xmlns:sodipodi="http://sodipodi.sourceforge.net/DTD/sodipodi-0.dtd"
   xmlns="http://www.w3.org/2000/svg"
   xmlns:svg="http://www.w3.org/2000/svg"><sodipodi:namedview
     id="namedview1"
     pagecolor="#ffffff"
     bordercolor="#000000"
     borderopacity="0.25"
     inkscape:showpageshadow="2"
     inkscape:pageopacity="0.0"
     inkscape:pagecheckerboard="0"
     inkscape:deskcolor="#d1d1d1"
     inkscape:document-units="mm"
     inkscape:zoom="8.2747365"
     inkscape:cx="-33.354536"
     inkscape:cy="6.3446129"
     inkscape:window-width="1920"
     inkscape:window-height="1017"
     inkscape:window-x="5752"
     inkscape:window-y="420"
     inkscape:window-maximized="1"
     inkscape:current-layer="layer1"><inkscape:page
       x="-8.7218738e-10"
       y="-8.7218782e-10"
       width="4.8409204"
       height="4.8409204"
       id="page1"
       margin="0"
       bleed="0" /></sodipodi:namedview><defs
     id="defs1" /><g
     inkscape:label="Layer 1"
     inkscape:groupmode="layer"
     id="layer1-2"
     transform="translate(-103.2178,-146.22398)">&#10;      <path
   fill="#888888"
   d="m 105.06872,149.84444 a 0.51523127,0.51803685 0 0 0 0.51523,-0.51804 v -1.55411 a 0.51523127,0.51803685 0 0 0 -0.51523,-0.51804 h -0.51524 a 0.51523127,0.51803685 0 0 0 -0.51522,0.51804 v 0.51804 a 0.51523127,0.51803685 0 0 0 0.51522,0.51803 h 0.51524 v 0.51804 h -1.03046 v 0.51804 h 1.03046 m 0,-1.55411 h -0.51524 v -0.51804 h 0.51524 z"
   id="path1-5"
   style="stroke-width:0.258316" />&#10;       <path
   fill="#888888"
   d="m 105.69257,147.24444 v 0.51804 h 1.03046 v 0.51804 h -0.51524 a 0.51523127,0.51803685 0 0 0 -0.51522,0.51803 v 1.03608 h 0.51522 1.03047 v -0.51804 h -1.03047 v -0.51804 h 0.51524 a 0.51523127,0.51803685 0 0 0 0.51523,-0.51803 v -0.51804 a 0.51523127,0.51803685 0 0 0 -0.51523,-0.51804 z"
   id="path1-8-5"
   style="stroke-width:0.258316" />&#10;       <circle
   style="fill:none;stroke:#888888;stroke-width:0.4;stroke-dasharray:none;stroke-opacity:1"
   id="path2-8"
   cx="105.63826"
   cy="148.64444"
   r="2.2204602" /></g></svg>
